<?xml version="1.0" standalone="no"?>
<!DOCTYPE svg PUBLIC "-//W3C//DTD SVG 20010904//EN"
 "http://www.w3.org/TR/2001/REC-SVG-20010904/DTD/svg10.dtd">
<svg version="1.0" xmlns="http://www.w3.org/2000/svg"
 width="24.000000pt" height="24.000000pt" viewBox="0 0 24.000000 24.000000"
 preserveAspectRatio="xMidYMid meet">

<g transform="translate(0.000000,24.000000) scale(0.100000,-0.100000)"
fill="#000000" stroke="none">
<path d="M95 220 c-4 -6 -4 -21 -1 -33 4 -19 -2 -26 -37 -42 -23 -11 -42 -26
-42 -34 0 -14 80 -61 105 -61 25 0 105 47 105 61 0 8 -18 23 -41 34 -35 17
-41 24 -40 50 1 24 -4 31 -21 33 -11 2 -24 -2 -28 -8z m35 -80 c0 -16 -4 -30
-10 -30 -5 0 -10 14 -10 30 0 17 5 30 10 30 6 0 10 -13 10 -30z m-40 -30 c0
-5 -7 -10 -15 -10 -8 0 -15 5 -15 10 0 6 7 10 15 10 8 0 15 -4 15 -10z"/>
<path d="M10 62 c0 -11 86 -52 110 -52 24 0 110 41 110 52 0 12 -7 10 -50 -12
-49 -25 -71 -25 -120 0 -43 22 -50 24 -50 12z"/>
</g>
</svg>
