<?xml version="1.0" standalone="no"?>
<!DOCTYPE svg PUBLIC "-//W3C//DTD SVG 20010904//EN"
 "http://www.w3.org/TR/2001/REC-SVG-20010904/DTD/svg10.dtd">
<svg version="1.0" xmlns="http://www.w3.org/2000/svg"
 width="100.000000pt" height="100.000000pt" viewBox="0 0 100.000000 100.000000"
 preserveAspectRatio="xMidYMid meet">

<g transform="translate(0.000000,100.000000) scale(0.100000,-0.100000)"
fill="#000000" stroke="none">
<path d="M383 985 c-184 -50 -322 -191 -369 -378 -41 -158 25 -364 152 -475
236 -208 598 -155 756 110 96 162 101 330 15 492 -104 195 -349 306 -554 251z
m233 -20 c79 -18 166 -69 231 -135 94 -96 139 -224 130 -369 -4 -72 -11 -95
-45 -165 -56 -112 -121 -177 -231 -230 -85 -41 -87 -41 -201 -41 -112 0 -117
1 -193 37 -255 122 -357 408 -234 658 31 63 140 176 201 206 102 52 226 67
342 39z"/>
<path d="M429 929 c-9 -18 -8 -25 8 -40 17 -18 21 -18 38 -4 19 15 19 15 -7 9
-25 -6 -28 -3 -28 21 0 24 3 26 26 21 17 -5 23 -3 19 4 -11 17 -44 11 -56 -11z"/>
<path d="M500 915 c0 -19 5 -35 10 -35 6 0 10 16 10 35 0 19 -4 35 -10 35 -5
0 -10 -16 -10 -35z"/>
<path d="M540 930 c-14 -26 3 -60 30 -60 11 0 24 9 30 20 14 26 -3 60 -30 60
-11 0 -24 -9 -30 -20z m45 -20 c0 -27 -22 -39 -31 -16 -8 22 3 49 19 43 6 -2
12 -14 12 -27z"/>
<path d="M360 894 c0 -30 3 -34 14 -25 7 6 22 8 31 4 20 -7 15 6 -13 40 -23
26 -32 21 -32 -19z m25 6 c3 -5 1 -10 -4 -10 -6 0 -11 5 -11 10 0 6 2 10 4 10
3 0 8 -4 11 -10z"/>
<path d="M621 898 c-11 -32 -7 -55 5 -24 9 22 24 20 24 -4 0 -11 4 -20 9 -20
12 0 35 59 27 67 -4 4 -9 -3 -13 -15 -6 -26 -23 -20 -23 9 0 30 -17 23 -29
-13z"/>
<path d="M310 890 c12 -22 1 -27 -17 -9 -23 23 -31 3 -12 -31 19 -34 20 -34
14 -6 l-6 29 25 -17 c14 -9 26 -12 26 -7 0 17 -23 61 -32 61 -5 0 -4 -9 2 -20z"/>
<path d="M707 866 c-26 -21 -38 -44 -15 -30 6 4 17 -1 24 -11 14 -19 16 -17
27 32 7 32 -4 35 -36 9z m23 -16 c0 -5 -4 -10 -10 -10 -5 0 -10 5 -10 10 0 6
5 10 10 10 6 0 10 -4 10 -10z"/>
<path d="M762 821 c-21 -29 -21 -29 -1 -46 10 -10 19 -13 19 -7 0 6 -5 14 -11
17 -7 5 -5 15 6 32 23 35 13 39 -13 4z"/>
<path d="M180 824 c-11 -13 -9 -19 13 -41 22 -22 28 -24 41 -13 19 15 21 41 4
58 -17 17 -43 15 -58 -4z m50 -9 c10 -12 10 -19 2 -27 -15 -15 -48 14 -38 31
10 15 21 14 36 -4z"/>
<path d="M499 813 c-34 -42 -59 -83 -64 -106 -4 -14 -15 -33 -26 -43 -23 -21
-26 -91 -4 -120 8 -10 15 -27 15 -36 0 -21 -46 -58 -82 -65 -43 -8 -51 -25
-36 -72 9 -30 18 -41 33 -41 17 0 15 -5 -13 -28 -50 -42 -45 -81 17 -126 l49
-36 119 0 119 0 32 33 c41 42 45 104 10 126 l-22 14 22 8 c12 5 22 15 22 24 0
8 5 24 12 34 9 15 9 23 -1 35 -8 9 -19 16 -26 16 -21 0 -69 31 -88 57 -18 22
-18 27 -3 64 22 56 21 66 -24 154 -22 43 -40 71 -40 61 0 -9 9 -34 20 -56 25
-49 25 -82 1 -134 -10 -23 -21 -49 -25 -59 -8 -25 -23 -13 -31 24 -5 24 -2 38
14 60 27 36 26 60 -1 109 -19 32 -21 43 -12 67 6 15 16 27 22 26 7 -2 12 4 12
12 0 19 -4 19 -21 -2z m-29 -149 c10 -35 10 -46 -5 -73 -10 -20 -14 -43 -11
-57 9 -35 -11 -30 -34 9 -27 44 -26 88 5 121 14 15 25 35 26 44 0 9 2 13 4 7
1 -5 8 -28 15 -51z m40 -11 c0 -36 -13 -34 -27 4 -19 55 -16 70 7 40 11 -14
20 -34 20 -44z m75 -71 c-3 -16 -16 -39 -29 -51 -22 -20 -22 -20 3 33 28 59
37 65 26 18z m-129 -90 c-2 -4 18 -9 45 -10 38 -2 48 1 43 10 -4 7 2 4 13 -7
26 -26 13 -35 -52 -35 -57 0 -95 8 -95 21 0 5 12 4 26 -1 14 -6 44 -9 67 -8
40 1 40 1 7 5 -65 7 -86 13 -69 24 17 11 22 11 15 1z m164 -52 c3 0 -2 -5 -10
-10 -22 -14 -193 -12 -213 3 -14 10 4 12 100 10 65 -1 120 -2 123 -3z m-297
-28 c-20 -21 -28 -20 -20 3 4 8 13 15 22 15 13 0 12 -3 -2 -18z m72 6 c25 -11
26 -16 24 -72 l-3 -61 95 -5 94 -5 0 70 0 70 37 1 c24 1 43 -5 50 -15 11 -14
11 -14 -3 -3 -29 22 -49 4 -49 -44 0 -24 -4 -44 -10 -44 -5 0 -10 -5 -10 -11
0 -6 7 -9 15 -6 25 10 29 -15 5 -35 -18 -15 -40 -18 -132 -18 -95 0 -116 3
-144 21 -43 26 -44 44 -4 36 31 -7 43 9 15 19 -11 5 -15 21 -15 60 0 30 2 54
5 54 2 0 16 -5 30 -12z m92 -24 c3 -8 1 -20 -6 -27 -15 -15 -14 -50 1 -65 9
-9 5 -12 -20 -12 l-32 0 0 60 c0 58 1 60 25 60 14 0 28 -7 32 -16z m103 -44
c0 -57 -1 -60 -25 -60 -22 0 -23 3 -15 24 6 17 4 30 -7 45 -19 29 -10 51 22
51 24 0 25 -2 25 -60z m-263 3 c-3 -10 -5 -2 -5 17 0 19 2 27 5 18 2 -10 2
-26 0 -35z m193 22 c0 -14 -4 -25 -10 -25 -5 0 -10 11 -10 25 0 14 5 25 10 25
6 0 10 -11 10 -25z m160 -10 c0 -14 -4 -25 -10 -25 -5 0 -10 11 -10 25 0 14 5
25 10 25 6 0 10 -11 10 -25z m-152 -23 c9 9 12 7 12 -10 0 -27 -25 -39 -45
-22 -23 19 -20 43 3 31 13 -7 23 -6 30 1z m-165 -104 c19 -14 27 -28 27 -49
l0 -30 -40 23 c-34 20 -40 28 -40 56 0 35 1 35 53 0z m317 -6 c0 -20 -9 -35
-30 -50 l-30 -23 0 30 c0 18 9 38 22 51 29 27 38 25 38 -8z m-70 -47 l0 -35
-105 0 -105 0 0 35 0 35 105 0 105 0 0 -35z"/>
<path d="M130 758 c1 -7 9 -23 19 -35 19 -23 32 -30 30 -15 -4 21 3 32 19 33
11 0 7 5 -13 14 -38 18 -55 18 -55 3z m40 -18 c0 -5 -2 -10 -4 -10 -3 0 -8 5
-11 10 -3 6 -1 10 4 10 6 0 11 -4 11 -10z"/>
<path d="M830 752 c-31 -25 -21 -55 17 -50 23 2 28 8 28 32 0 36 -15 42 -45
18z m40 -16 c0 -19 -17 -29 -37 -22 -12 5 -13 9 -3 21 16 19 40 19 40 1z"/>
<path d="M257 712 c-3 -16 2 -31 16 -45 18 -18 21 -18 29 -3 5 9 16 16 25 16
13 0 14 3 5 12 -7 7 -12 19 -12 27 0 11 -10 16 -29 17 -24 1 -30 -4 -34 -24z
m53 -11 c0 -11 -5 -23 -11 -27 -14 -8 -29 14 -22 33 8 20 33 16 33 -6z"/>
<path d="M92 698 c-17 -17 -15 -28 6 -44 23 -18 49 -17 56 2 8 21 8 20 -10 38
-19 19 -36 20 -52 4z m48 -28 c0 -23 -4 -24 -31 -9 -23 12 -16 29 12 29 12 0
19 -7 19 -20z"/>
<path d="M873 685 c-25 -11 -30 -18 -26 -34 3 -12 10 -24 15 -27 5 -3 6 6 2
22 -6 22 -4 26 9 21 9 -3 18 -1 20 6 3 8 10 5 20 -8 16 -20 16 -20 10 3 -7 30
-13 32 -50 17z"/>
<path d="M70 630 c0 -8 34 -20 59 -20 21 0 8 9 -28 20 -17 5 -31 5 -31 0z"/>
<path d="M57 593 c-12 -11 -7 -41 7 -46 8 -3 21 4 29 16 8 12 18 19 22 15 4
-4 2 -15 -6 -24 -12 -15 -12 -17 1 -12 19 6 25 37 10 52 -9 8 -16 5 -31 -13
-11 -13 -22 -21 -26 -18 -3 4 0 13 7 22 12 14 0 22 -13 8z"/>
<path d="M886 581 c-19 -7 -18 -8 5 -14 22 -7 23 -8 7 -21 -26 -19 -22 -23 17
-18 31 4 35 8 35 33 0 24 -4 29 -22 28 -13 0 -32 -4 -42 -8z m54 -26 c0 -8 -4
-15 -10 -15 -5 0 -10 7 -10 15 0 8 5 15 10 15 6 0 10 -7 10 -15z"/>
<path d="M47 513 c-12 -11 -7 -41 7 -46 8 -3 27 -2 43 3 15 5 20 9 11 9 -10 1
-18 7 -18 15 0 8 8 17 18 19 9 3 1 5 -19 6 -20 0 -39 -2 -42 -6z m33 -18 c0
-8 -4 -15 -10 -15 -5 0 -10 7 -10 15 0 8 5 15 10 15 6 0 10 -7 10 -15z"/>
<path d="M893 503 c-18 -7 -16 -50 3 -57 27 -10 43 -7 54 13 16 32 -20 60 -57
44z m45 -26 c4 -20 -25 -34 -40 -19 -15 15 -1 44 19 40 10 -2 19 -11 21 -21z"/>
<path d="M115 431 c8 -26 -9 -28 -25 -3 -11 16 -11 16 -6 0 3 -10 1 -20 -4
-23 -5 -3 -12 4 -15 16 -4 11 -9 18 -12 16 -3 -3 -2 -15 2 -26 6 -21 29 -27
59 -15 18 7 21 39 5 50 -8 4 -9 0 -4 -15z"/>
<path d="M871 416 c-13 -16 -4 -46 14 -46 7 0 20 10 29 23 l17 22 -5 -22 c-2
-13 0 -23 5 -23 5 0 9 11 9 25 0 28 -27 35 -36 10 -9 -23 -26 -18 -19 5 7 23
2 26 -14 6z"/>
<path d="M95 353 l29 -5 -24 -19 c-14 -10 -20 -19 -15 -19 6 0 24 11 40 25
l30 24 -45 -1 c-33 -1 -37 -2 -15 -5z"/>
<path d="M860 346 c0 -8 -7 -19 -16 -24 -13 -7 -8 -10 22 -15 21 -4 40 -4 42
-2 9 8 -7 34 -27 45 -17 9 -21 8 -21 -4z"/>
<path d="M128 304 c-16 -8 -28 -17 -28 -19 0 -11 27 -3 50 15 29 23 17 26 -22
4z"/>
<path d="M145 275 c-16 -13 -25 -24 -20 -25 6 0 17 6 24 13 11 10 12 6 6 -20
-8 -39 3 -42 35 -8 23 25 16 37 -8 13 -10 -10 -11 -5 -6 20 4 18 5 32 3 32 -2
0 -17 -11 -34 -25z"/>
<path d="M820 291 c0 -5 5 -13 10 -16 18 -11 -1 -26 -23 -20 -18 6 -17 2 8
-19 29 -24 30 -24 49 -6 16 16 17 21 6 35 -18 22 -50 38 -50 26z m40 -46 c0
-8 -4 -15 -10 -15 -5 0 -10 7 -10 15 0 8 5 15 10 15 6 0 10 -7 10 -15z"/>
<path d="M795 210 c16 -16 31 -28 33 -25 7 7 -39 55 -52 55 -5 0 3 -13 19 -30z"/>
<path d="M190 205 c-13 -14 -19 -25 -13 -25 5 0 18 9 28 20 10 11 22 20 27 20
13 0 9 -27 -7 -40 -8 -7 -15 -17 -15 -23 0 -5 9 -2 20 8 23 21 23 58 0 63 -9
1 -27 -9 -40 -23z"/>
<path d="M732 198 c-17 -17 -15 -32 7 -52 32 -29 72 5 51 45 -12 21 -40 25
-58 7z m46 -26 c3 -16 -2 -22 -16 -22 -24 0 -35 23 -19 39 16 16 31 8 35 -17z"/>
</g>
</svg>
