<?xml version="1.0" standalone="no"?>
<!DOCTYPE svg PUBLIC "-//W3C//DTD SVG 20010904//EN"
 "http://www.w3.org/TR/2001/REC-SVG-20010904/DTD/svg10.dtd">
<svg version="1.0" xmlns="http://www.w3.org/2000/svg"
 width="24.000000pt" height="24.000000pt" viewBox="0 0 24.000000 24.000000"
 preserveAspectRatio="xMidYMid meet">

<g transform="translate(0.000000,24.000000) scale(0.100000,-0.100000)"
fill="#000000" stroke="none">
<path d="M34 197 c-3 -8 -4 -47 -2 -88 l3 -74 85 0 85 0 0 85 0 85 -83 3 c-63
2 -84 0 -88 -11z m97 -34 l1 -28 8 25 c8 25 8 25 10 -5 1 -18 4 -23 7 -12 2 9
8 17 13 17 11 0 0 -81 -13 -97 -16 -21 -52 -15 -80 15 -27 29 -27 52 1 30 13
-11 14 -7 7 30 -7 44 10 62 18 20 4 -20 4 -19 6 5 1 35 21 35 22 0z"/>
</g>
</svg>
