<?xml version="1.0" standalone="no"?>
<!DOCTYPE svg PUBLIC "-//W3C//DTD SVG 20010904//EN"
 "http://www.w3.org/TR/2001/REC-SVG-20010904/DTD/svg10.dtd">
<svg version="1.0" xmlns="http://www.w3.org/2000/svg"
 width="900.000000pt" height="980.000000pt" viewBox="0 0 900.000000 980.000000"
 preserveAspectRatio="xMidYMid meet">

<g transform="translate(0.000000,980.000000) scale(0.100000,-0.100000)"
fill="#000000" stroke="none">
<path d="M4365 9780 c-22 -11 -53 -39 -70 -62 -112 -158 -442 -728 -621 -1074
-74 -142 -94 -189 -94 -222 0 -95 36 -119 192 -132 62 -5 160 -10 217 -10
l104 0 -6 -2387 c-3 -1314 -10 -2401 -14 -2416 l-8 -28 -157 110 c-146 103
-495 356 -1288 935 -173 126 -351 256 -396 288 l-81 58 -6 277 c-4 153 -7 343
-7 423 l0 145 58 37 c183 119 278 294 289 534 10 210 -49 367 -191 509 -137
137 -290 198 -486 197 -126 -1 -195 -17 -310 -74 -120 -59 -239 -178 -298
-298 -23 -47 -47 -112 -53 -145 -16 -88 -6 -328 16 -388 29 -80 113 -197 206
-287 l89 -86 0 -454 c0 -250 5 -497 10 -548 12 -116 39 -179 99 -234 62 -59
576 -452 2086 -1599 l440 -334 0 -244 0 -244 -110 -56 c-61 -31 -137 -77 -170
-102 -305 -236 -468 -647 -399 -1009 115 -609 740 -995 1318 -813 395 123 684
466 736 873 55 430 -229 913 -637 1082 l-53 22 0 990 0 991 482 325 c2181
1469 2167 1459 2225 1573 36 72 43 168 43 620 l0 397 93 0 c117 0 154 11 211
61 l46 41 -1 511 c0 282 -4 551 -7 599 -8 100 -26 128 -95 147 -138 38 -1108
35 -1189 -3 -79 -38 -88 -98 -87 -611 0 -430 9 -640 30 -673 28 -45 87 -66
198 -70 l103 -4 -6 -37 c-3 -20 -6 -185 -6 -368 l0 -331 -102 -65 c-57 -35
-258 -162 -448 -282 -844 -533 -1444 -905 -1459 -905 -5 0 -12 15 -16 33 -4
17 -9 770 -12 1673 l-4 1641 200 6 c223 7 260 16 285 66 33 63 20 115 -75 303
-103 205 -498 883 -611 1051 -65 95 -123 117 -203 77z"/>
</g>
</svg>
